M48
METRIC,LZ,000.000
;FILE_FORMAT=3:3
;TYPE=PLATED
;Layer: PTH_Through
;EasyEDA v6.5.57, 2026-07-18 21:38:12
;6547f25e859d4872b92c4b4c1acb644d,e348c271af94452cba638ad1145e7fe5,10
;Gerber Generator version 0.2
;Holesize 1 = 0.305 mm
T01C0.305
;Holesize 2 = 0.889 mm
T02C0.889
;Holesize 3 = 0.901 mm
T03C0.901
;Holesize 4 = 0.915 mm
T04C0.915
;Holesize 5 = 1.000 mm
T05C1.000
;Holesize 6 = 1.101 mm
T06C1.101
;Holesize 7 = 1.200 mm
T07C1.200
%
G05
G90
T01
X060046Y043688
X075275Y025384
T02
X092075Y002791G85X092075Y002797
X092075Y005331G85X092075Y005337
X092075Y007871G85X092075Y007877
X092075Y010411G85X092075Y010417
T03
X099184Y025527G85X099190Y025527
X099057Y028067G85X099063Y028067
X099057Y030607G85X099063Y030607
X011549Y042923G85X011549Y042929
X011549Y040383G85X011549Y040389
X011549Y037843G85X011549Y037849
X011549Y035303G85X011549Y035309
X011549Y032763G85X011549Y032769
X011549Y030223G85X011549Y030229
X011549Y027683G85X011549Y027689
X011549Y025143G85X011549Y025149
X011549Y022603G85X011549Y022609
X011549Y020063G85X011549Y020069
X011549Y017523G85X011549Y017529
X011549Y014983G85X011549Y014989
X011498Y012443G85X011498Y012449
X011549Y063243G85X011549Y063249
X011549Y060706G85X011549Y060706
X011549Y058166G85X011549Y058166
X011549Y055626G85X011549Y055626
X011549Y053086G85X011549Y053086
X011549Y050546G85X011549Y050546
X011549Y048006G85X011549Y048006
X011549Y045466G85X011549Y045466
X036958Y045463G85X036958Y045469
X036958Y048003G85X036958Y048009
X036958Y050543G85X036958Y050549
X036958Y053083G85X036958Y053089
X036958Y055623G85X036958Y055629
X036958Y058163G85X036958Y058169
X036958Y060703G85X036958Y060709
X036958Y063243G85X036958Y063249
X037009Y012443G85X037009Y012449
X036958Y014983G85X036958Y014989
X036958Y017523G85X036958Y017529
X036958Y020063G85X036958Y020069
X036958Y022603G85X036958Y022609
X036958Y025143G85X036958Y025149
X036958Y027683G85X036958Y027689
X036958Y030223G85X036958Y030229
X036958Y032763G85X036958Y032769
X036958Y035303G85X036958Y035309
X036958Y037843G85X036958Y037849
X036958Y040383G85X036958Y040389
X036958Y042923G85X036958Y042929
T04
X076962Y034541G85X076962Y034547
X076962Y037081G85X076962Y037087
X096901Y062230
X096901Y064770
X096901Y067310
X096901Y069850
T05
X061292Y018669
X058752Y018669
X056212Y018669
X053682Y018669
T06
X050165Y064132G85X050165Y064138
X050165Y056512G85X050165Y056518
X050165Y059052G85X050165Y059058
X050165Y061592G85X050165Y061598
X071755Y064132G85X071755Y064138
X071755Y056512G85X071755Y056518
X071755Y059052G85X071755Y059058
X071755Y061592G85X071755Y061598
X064135Y079502
X066675Y079502
X069215Y079502
X061595Y079502
X096647Y043688
X096647Y046228
X096647Y048768
T07
X082169Y025530G85X082169Y025524
X082169Y022990G85X082169Y022984
X044253Y035433
X067253Y035433
M30
