G04 Layer: TopSolderMaskLayer*
G04 EasyEDA v6.5.57, 2026-07-18 21:38:12*
G04 6547f25e859d4872b92c4b4c1acb644d,e348c271af94452cba638ad1145e7fe5,10*
G04 Gerber Generator version 0.2*
G04 Scale: 100 percent, Rotated: No, Reflected: No *
G04 Dimensions in millimeters *
G04 leading zeros omitted , absolute positions ,4 integer and 5 decimal *
%FSLAX45Y45*%
%MOMM*%

%AMMACRO1*4,1,8,-0.921,-0.9507,-0.9507,-0.9207,-0.9507,0.921,-0.921,0.9507,0.9207,0.9507,0.9507,0.921,0.9507,-0.9207,0.9207,-0.9507,-0.921,-0.9507,0*%
%AMMACRO2*4,1,8,-0.8085,-0.8382,-0.8382,-0.8082,-0.8382,0.8085,-0.8085,0.8382,0.8082,0.8382,0.8382,0.8085,0.8382,-0.8082,0.8082,-0.8382,-0.8085,-0.8382,0*%
%AMMACRO3*4,1,8,-0.7711,-0.7508,-0.8009,-0.7209,-0.8009,0.7211,-0.7711,0.7508,0.7709,0.7508,0.8009,0.7211,0.8009,-0.7209,0.7709,-0.7508,-0.7711,-0.7508,0*%
%AMMACRO4*4,1,8,-0.771,-0.8009,-0.8007,-0.7709,-0.8007,0.7711,-0.771,0.8009,0.7708,0.8009,0.8007,0.7711,0.8007,-0.7709,0.7708,-0.8009,-0.771,-0.8009,0*%
%AMMACRO5*4,1,8,-0.7711,-0.8009,-0.8009,-0.7709,-0.8009,0.7711,-0.7711,0.8009,0.7709,0.8009,0.8009,0.7711,0.8009,-0.7709,0.7709,-0.8009,-0.7711,-0.8009,0*%
%ADD10MACRO1*%
%ADD11C,1.9016*%
%ADD12C,1.6256*%
%ADD13MACRO2*%
%ADD14C,1.6764*%
%ADD15C,2.1016*%
%ADD16C,0.0103*%
%ADD17C,1.9000*%
%ADD18MACRO3*%
%ADD19O,1.601597X1.501597*%
%ADD20C,1.7272*%
%ADD21C,2.0016*%
%ADD22C,1.6016*%
%ADD23MACRO4*%
%ADD24MACRO5*%

%LPD*%
D10*
G01*
X8216900Y2552700D03*
D11*
G01*
X8216900Y2298700D03*
D12*
G01*
X7696200Y3454400D03*
G01*
X7696200Y3708400D03*
D13*
G01*
X9207500Y279400D03*
D14*
G01*
X9207500Y533400D03*
G01*
X9207500Y787400D03*
G01*
X9207500Y1041400D03*
D15*
G01*
X6129197Y1866900D03*
G01*
X5875197Y1866900D03*
G01*
X5621197Y1866900D03*
G01*
X5368188Y1866900D03*
D17*
G01*
X4425289Y3543300D03*
G01*
X6725310Y3543300D03*
D12*
G01*
X5016500Y6413500D03*
G01*
X5016500Y5651500D03*
G01*
X5016500Y5905500D03*
G01*
X5016500Y6159500D03*
G01*
X7175500Y6413500D03*
G01*
X7175500Y5651500D03*
G01*
X7175500Y5905500D03*
G01*
X7175500Y6159500D03*
G01*
X9690100Y6223000D03*
G01*
X9690100Y6477000D03*
G01*
X9690100Y6731000D03*
G01*
X9690100Y6985000D03*
D18*
G01*
X9918700Y2552700D03*
D19*
G01*
X9906000Y2806700D03*
G01*
X9906000Y3060700D03*
D20*
G01*
X6413500Y7950200D03*
G01*
X6667500Y7950200D03*
G01*
X6921500Y7950200D03*
D12*
G01*
X6159500Y7950200D03*
D21*
G01*
X9664700Y4368800D03*
G01*
X9664700Y4622800D03*
G01*
X9664700Y4876800D03*
D22*
G01*
X1154912Y4292600D03*
G01*
X1154912Y4038600D03*
G01*
X1154912Y3784600D03*
G01*
X1154912Y3530600D03*
G01*
X1154912Y3276600D03*
G01*
X1154912Y3022600D03*
G01*
X1154912Y2768600D03*
G01*
X1154912Y2514600D03*
G01*
X1154912Y2260600D03*
G01*
X1154912Y2006600D03*
G01*
X1154912Y1752600D03*
G01*
X1154912Y1498600D03*
D23*
G01*
X1149819Y1244600D03*
D22*
G01*
X1154912Y6324600D03*
G01*
X1154912Y6070600D03*
G01*
X1154912Y5816600D03*
G01*
X1154912Y5562600D03*
G01*
X1154912Y5308600D03*
G01*
X1154912Y5054600D03*
G01*
X1154912Y4800600D03*
G01*
X1154912Y4546600D03*
G01*
X3695801Y4546600D03*
G01*
X3695801Y4800600D03*
G01*
X3695801Y5054600D03*
G01*
X3695801Y5308600D03*
G01*
X3695801Y5562600D03*
G01*
X3695801Y5816600D03*
G01*
X3695801Y6070600D03*
G01*
X3695801Y6324600D03*
D24*
G01*
X3700881Y1244600D03*
D22*
G01*
X3695801Y1498600D03*
G01*
X3695801Y1752600D03*
G01*
X3695801Y2006600D03*
G01*
X3695801Y2260600D03*
G01*
X3695801Y2514600D03*
G01*
X3695801Y2768600D03*
G01*
X3695801Y3022600D03*
G01*
X3695801Y3276600D03*
G01*
X3695801Y3530600D03*
G01*
X3695801Y3784600D03*
G01*
X3695801Y4038600D03*
G01*
X3695801Y4292600D03*
M02*
